<?xml version="1.0" encoding="utf-8"?>
<!-- Generator: Adobe Illustrator 26.3.1, SVG Export Plug-In . SVG Version: 6.00 Build 0)  -->
<svg version="1.1" id="Capa_1" xmlns="http://www.w3.org/2000/svg" xmlns:xlink="http://www.w3.org/1999/xlink" x="0px" y="0px"
	 viewBox="0 0 800 350" style="enable-background:new 0 0 800 350;" xml:space="preserve">
<style type="text/css">
	.st0{fill:#FFFFFF;}
	.st1{fill:#00FF93;}
	.st2{fill:#00603C;}
	.st3{fill:#101A21;}
	.st4{clip-path:url(#SVGID_00000170260560612079348360000008892605494219003284_);fill:#007C57;}
	.st5{clip-path:url(#SVGID_00000170260560612079348360000008892605494219003284_);fill:#AFC480;}
	.st6{opacity:0.5;fill:#00FF93;}
	.st7{opacity:0.39;fill:#00FF93;}
	.st8{fill:#3A434D;}
</style>
<path class="st0" d="M167.6,245.2c0.1-0.1,0.3-0.1,0.4-0.2c48.3-10.1,72.4-25.2,71.5-33.9c-0.1-0.6-0.2-1.2-0.5-1.8l0.9-0.1
	c-6-7.3-28.4-33.6-88.8-35.2c-6.3-14.5-27.4-20.8-43.9-19.1c-0.6,0.1-1.3,0.2-1.9,0.2c-0.2,0-0.4,0.1-0.6,0.1
	c-0.4,0.1-0.8,0.1-1.2,0.2c-0.2,0.1-0.5,0.1-0.7,0.2c-0.4,0.1-0.7,0.2-1.1,0.3c-0.3,0.1-0.5,0.1-0.8,0.2c-0.3,0.1-0.7,0.2-1,0.3
	c-0.3,0.1-0.5,0.2-0.8,0.3c-0.3,0.1-0.6,0.2-1,0.3c-0.3,0.1-0.5,0.2-0.8,0.3c-0.3,0.1-0.6,0.2-0.9,0.4c-0.3,0.1-0.5,0.2-0.8,0.3
	c-0.3,0.1-0.6,0.3-0.9,0.4c-0.3,0.1-0.5,0.3-0.7,0.4c-0.3,0.1-0.6,0.3-0.8,0.4c-0.2,0.1-0.5,0.3-0.7,0.4c-0.3,0.2-0.5,0.3-0.8,0.5
	c-0.2,0.1-0.5,0.3-0.7,0.5c-0.3,0.2-0.5,0.3-0.8,0.5c-0.2,0.2-0.5,0.3-0.7,0.5c-0.3,0.2-0.5,0.4-0.8,0.5c-0.2,0.2-0.4,0.4-0.7,0.5
	c-0.2,0.2-0.5,0.4-0.7,0.6c-0.2,0.2-0.4,0.4-0.6,0.6c-0.2,0.2-0.5,0.4-0.7,0.6c-0.2,0.2-0.4,0.4-0.6,0.6c-0.2,0.2-0.4,0.4-0.7,0.6
	c-0.2,0.2-0.4,0.4-0.6,0.6c-0.2,0.2-0.4,0.4-0.6,0.7c-0.2,0.2-0.4,0.4-0.6,0.7c-0.2,0.2-0.3,0.4-0.5,0.6l0,0
	c-3.9,4.7-6.6,8.4-7.8,14.5C18.4,197.4,2.4,227.6-1,235.5l1.1-0.1c0,0.5,0,1,0,1.4c0.9,8.6,32.3,17.1,77.1,17.5
	c1.9,0.4,2-0.2,4.3,0.2l41.7,112.3h46.8h53.5H280L167.6,245.2z"/>
<g>
	<g>
		<g>
			
				<ellipse transform="matrix(0.7071 -0.7071 0.7071 0.7071 -102.2243 136.3786)" class="st1" cx="113.5" cy="191.6" rx="34" ry="34"/>
			<g>
				<path class="st0" d="M147.3,188c-2.6-20.8-23.6-34.7-43.7-28.6c-6.3,1.9-12.1,5.6-16.4,10.7c4.1-5.2,9.9-9.2,16.3-11.2
					C123.9,152.3,145.5,166.6,147.3,188L147.3,188z"/>
			</g>
		</g>
		
			<ellipse transform="matrix(0.9943 -0.1068 0.1068 0.9943 -23.1334 13.7521)" class="st2" cx="116.9" cy="222.9" rx="110.4" ry="25.9"/>
		<path class="st3" d="M11.8,239.6c3.7-2.7,7.5-5.2,11.5-7.6c4-2.3,8-4.4,12.2-6.3c8.3-3.8,17-7,25.8-9.6c8.8-2.6,17.8-4.6,26.8-6.4
			l6.8-1.2c1.1-0.2,2.3-0.4,3.4-0.5l3.4-0.5l3.4-0.5l3.4-0.4l6.8-0.8c9.1-1,18.3-1.6,27.5-1.8c9.2-0.2,18.4,0,27.5,0.6
			c9.1,0.7,18.3,1.8,27.3,3.6c4.5,0.9,9,2,13.3,3.3c4.4,1.4,8.7,3,12.6,5.3c-4-2.3-8.3-3.9-12.7-5.2c-4.4-1.3-8.9-2.3-13.4-3.2
			c-9-1.7-18.1-2.8-27.2-3.4c-18.3-1.2-36.7-0.7-54.9,1.3l-6.8,0.8l-3.4,0.4l-3.4,0.5l-3.4,0.5c-1.1,0.2-2.3,0.3-3.4,0.5l-6.8,1.2
			c-9,1.7-17.9,3.7-26.7,6.3c-8.8,2.5-17.4,5.6-25.8,9.4c-4.2,1.8-8.2,4-12.2,6.2C19.4,234.5,15.5,236.9,11.8,239.6z"/>
		<g>
			<defs>
				
					<ellipse id="SVGID_1_" transform="matrix(0.9943 -0.1068 0.1068 0.9943 -23.1334 13.7521)" cx="116.9" cy="222.9" rx="110.4" ry="25.9"/>
			</defs>
			<clipPath id="SVGID_00000093137003415969742610000002594066267100243871_">
				<use xlink:href="#SVGID_1_"  style="overflow:visible;"/>
			</clipPath>
			
				<ellipse transform="matrix(0.9943 -0.1068 0.1068 0.9943 -24.958 14.0474)" style="clip-path:url(#SVGID_00000093137003415969742610000002594066267100243871_);fill:#007C57;" cx="118.7" cy="240.1" rx="51.2" ry="12"/>
			<path style="clip-path:url(#SVGID_00000093137003415969742610000002594066267100243871_);fill:#AFC480;" d="M156.4,238
				c0.3,2.7-12.2,8.2-36.7,10.8c-21.2,2.3-37.9,0-38.2-2.8c-0.4-3.7,16-8.6,36.7-10.8C138.9,233.1,156,234.3,156.4,238z"/>
		</g>
		<g>
			<path class="st6" d="M156.3,237.7L263.9,354H120L81.4,245.7c0,0,1-6.8,38-10.5C155.2,231.7,156.3,237.7,156.3,237.7z"/>
			<path class="st7" d="M156.3,237.7L212.1,354H163L81.4,245.7c0,0,1-6.8,38-10.5C155.2,231.7,156.3,237.7,156.3,237.7z"/>
		</g>
		<g>
			<path class="st3" d="M227.1,209.4c-6.5-7.9-35.1-38.6-114.9-30C36.1,187.6,9.7,224.9,6.1,233.5c8.4-5.8,41.2-29,109.9-36.4
				C183,190,217.9,205,227.1,209.4z"/>
			<g>
				<path class="st1" d="M227.1,209.4c-32.5-37.2-101-34.8-145.2-24.2c-19.8,4.9-39.3,12.9-55.5,25.5c-7.9,6.4-15.7,13.6-20.3,22.8
					c3.3-7,8.7-12.8,14.2-18.1c15.1-14.1,34.3-23.1,54-29.1c2.5-0.7,8.8-2.3,11.2-2.9c2.5-0.6,8.8-1.7,11.4-2.3
					c4.3-0.8,10.9-1.5,15.3-2.2c5.1-0.4,10.3-0.9,15.4-1.2c2.4-0.1,9.2-0.2,11.6-0.3c6,0.1,13.4,0.3,19.3,1
					C183.6,181.1,210.3,189.4,227.1,209.4L227.1,209.4z"/>
			</g>
		</g>
	</g>
	<path class="st3" d="M157,281c-1,1.1-2,2.2-3,3.3c-0.4,0.4-0.7,0.8-1.2,1.1c-1,0.5-2.2,0.3-3.3,0.3c-2.8-0.1-5.4,1.3-8,2.4
		c-0.1,1.3-0.1,2.8-0.7,3.9c-0.9,1.5-2.4,3.1-3.5,4.5c-0.4,0.5-1,1-1.6,0.7c-0.3-0.3,1.7-2.6,2.7-3.9c0.9-1.3,1.7-2.9,1.2-4.4
		c0-0.1-0.1-0.2-0.2-0.3c-0.2-0.2-0.5,0-0.8,0.1c-0.7,0.4-1.5,0.8-2.4,0.6c-0.5-0.1-0.9-0.4-1.1-0.8c-0.4-0.8,0.2-1.5,0.8-1.8
		c0.5-0.2,1-0.2,1.6-0.2c0.2,0,0.3,0,0.4-0.1c0.1-0.1,0.1-0.2,0.1-0.4c0.1-1.1,0.1-2.2-0.1-3.3c-0.2-1.1-0.6-2.2-1.5-2.9
		c-0.8-0.8-2-1.1-2.9-1.6c-0.3-0.1-0.5-0.5-0.3-0.7c0.2-0.1,0.7-0.2,0.5-0.4c0.5,0.2,1,0.5,1.5,0.7c1.6,0.7,3.2,1.4,4.2,2.8
		c0.5,0.7,0.9,1.6,1.2,2.5c1.9,0.1,3.5-1.4,5.2-2.2c1.1-0.5,2.3-0.8,3.4-1.1c1-0.2,2-0.5,3-0.7c0.8-1.7,1.7-3.5,2.5-5.2
		c0.1-0.2,0.2-0.4,0.4-0.5c0.4-0.4,1-0.3,1.6-0.2c0.7,0.1,1.4,0.2,2.2,0.3l-0.1,0.2c-0.2,0.3-0.5,0.5-0.9,0.5
		c-0.5,0-0.9-0.1-1.3,0.1c-0.4,0.2-0.6,0.7-0.8,1.1c-0.4,0.9-0.7,1.9-0.9,2.9c-0.1,0.6-0.2,1.1-0.5,1.6c-0.3,0.5-0.8,0.8-1.3,1.1
		c-1,0.7-2.1,1.3-3.1,2c0.7,0.3,1.4,0.1,2.1-0.2c0.7-0.3,1.2-0.7,1.8-1.2c0.8-0.6,1.5-1.2,2.3-1.8c0.2-0.1,0.4-0.3,0.6-0.3
		c0.2,0,0.3,0,0.4,0c0.6,0.2,1.1,0.4,1.6,0.8c0.3,0.2,0.2,0.7-0.2,0.7C158.1,281.1,157.6,281.1,157,281z"/>
</g>
<path class="st0" d="M40.8,182.8c-6,0-10.8-4.9-10.8-10.8V24.3C30,13.1,39.1,4,50.2,4h706.9c11.2,0,20.3,9.1,20.3,20.3v88
	c0,11.2-9.1,20.3-20.3,20.3H95.6l-47.1,47.1C46.4,181.7,43.7,182.8,40.8,182.8z"/>
<g>
	<path class="st8" d="M40.8,184.3c-6.8,0-12.3-5.5-12.3-12.3V24.3c0-12,9.8-21.8,21.8-21.8h706.9c12,0,21.8,9.8,21.8,21.8v88
		c0,12-9.8,21.8-21.8,21.8h-661l-46.7,46.7C47.2,183,44.1,184.3,40.8,184.3z M50.2,8.3c-8.8,0-16,7.2-16,16V172
		c0,3.6,2.9,6.5,6.5,6.5c1.7,0,3.4-0.7,4.6-1.9L93,129.1c0.5-0.5,1.3-0.8,2.1-0.8h662.2c8.8,0,16-7.2,16-16v-88c0-8.8-7.2-16-16-16
		H50.2z"/>
	<path class="st0" d="M757.2,4c11.2,0,20.3,9.1,20.3,20.3v88c0,11.2-9.1,20.3-20.3,20.3H95.6l-47.1,47.1c-2,2-4.8,3.2-7.7,3.2
		c-6,0-10.8-4.9-10.8-10.8V24.3C30,13.1,39.1,4,50.2,4H757.2 M40.8,180c2.1,0,4.2-0.8,5.7-2.4L94,130.1c0.3-0.3,0.6-0.4,1-0.4h662.2
		c9.6,0,17.5-7.8,17.5-17.5v-88c0-9.6-7.8-17.5-17.5-17.5H50.2c-9.6,0-17.5,7.8-17.5,17.5V172C32.8,176.4,36.4,180,40.8,180
		 M757.2,1H50.2C37.4,1,27,11.4,27,24.3V172c0,7.6,6.2,13.8,13.8,13.8c3.7,0,7.2-1.4,9.8-4.1l46.2-46.2h660.3
		c12.8,0,23.3-10.4,23.3-23.3v-88C780.4,11.4,770,1,757.2,1L757.2,1z M40.8,177c-2.8,0-5-2.3-5-5V24.3c0-8,6.5-14.5,14.5-14.5h706.9
		c8,0,14.5,6.5,14.5,14.5v88c0,8-6.5,14.5-14.5,14.5H95c-1.2,0-2.3,0.5-3.1,1.3l-47.5,47.5C43.4,176.5,42.1,177,40.8,177L40.8,177z"
		/>
</g>
<g>
	<path class="st8" d="M97.7,119.3c-10.9,0-19.3-3.6-25.7-10.1c-9.7-9.8-10.1-19.7-10.1-40.6S62.3,37.9,72,28.1
		C78.4,21.6,86.8,18,97.7,18c18.3,0,32,10.9,35.5,30.6h-15.4c-2.2-10.2-9.1-17.2-20.1-17.2c-6,0-11.1,2.2-14.7,6.2
		c-5,5.3-6,11.3-6,31.1s1,25.7,6,31.1c3.6,3.9,8.7,6.2,14.7,6.2c11.1,0,18.1-7,20.4-17.2h15.1C129.7,108.4,115.9,119.3,97.7,119.3z"
		/>
	<path class="st8" d="M209.9,109.2c-6.4,6.4-14.8,10.1-25.7,10.1c-10.9,0-19.3-3.6-25.7-10.1c-9.8-9.8-10.1-19.7-10.1-40.6
		s0.3-30.8,10.1-40.6c6.4-6.4,14.8-10.1,25.7-10.1c10.9,0,19.3,3.6,25.7,10.1c9.8,9.8,10.1,19.7,10.1,40.6S219.7,99.4,209.9,109.2z
		 M199,37.6c-3.8-3.9-8.8-6.2-14.8-6.2c-6,0-11.1,2.2-14.8,6.2c-4.9,5.3-5.9,11.3-5.9,31.1s1,25.6,5.9,30.9
		c3.8,3.9,8.8,6.3,14.8,6.3c6,0,11.1-2.4,14.8-6.3c5-5.2,5.9-11.2,5.9-30.9S204,42.8,199,37.6z"/>
	<path class="st8" d="M303.5,118.5l-46-70.1v70.1h-15.1V18.8h13.9l46,70v-70h15.1v99.6H303.5z"/>
	<path class="st8" d="M377.1,32.4v86.1H362V32.4h-27.4V18.8h70v13.6H377.1z"/>
	<path class="st8" d="M470.6,118.5l-6.9-20h-39.3l-6.9,20h-16.1L438,18.8h12.2l36.5,99.6H470.6z M444.4,41.4l-15.5,44.2h30.6
		L444.4,41.4z"/>
	<path class="st8" d="M531.6,119.3c-10.9,0-19.3-3.6-25.7-10.1c-9.7-9.8-10.1-19.7-10.1-40.6s0.4-30.8,10.1-40.6
		c6.4-6.4,14.8-10.1,25.7-10.1c18.3,0,32,10.9,35.5,30.6h-15.4c-2.2-10.2-9.1-17.2-20.1-17.2c-6,0-11.1,2.2-14.7,6.2
		c-5,5.3-6,11.3-6,31.1s1,25.7,6,31.1c3.6,3.9,8.7,6.2,14.7,6.2c11.1,0,18.1-7,20.4-17.2h15.1C563.7,108.4,549.8,119.3,531.6,119.3z
		"/>
	<path class="st8" d="M618.2,32.4v86.1h-15.1V32.4h-27.4V18.8h70v13.6H618.2z"/>
	<path class="st8" d="M718,109.2c-6.4,6.4-14.8,10.1-25.7,10.1s-19.3-3.6-25.7-10.1c-9.8-9.8-10.1-19.7-10.1-40.6
		s0.3-30.8,10.1-40.6c6.4-6.4,14.8-10.1,25.7-10.1s19.3,3.6,25.7,10.1c9.8,9.8,10.1,19.7,10.1,40.6S727.8,99.4,718,109.2z
		 M707.1,37.6c-3.8-3.9-8.8-6.2-14.8-6.2s-11.1,2.2-14.8,6.2c-4.9,5.3-5.9,11.3-5.9,31.1s1,25.6,5.9,30.9c3.8,3.9,8.8,6.3,14.8,6.3
		s11.1-2.4,14.8-6.3c5-5.2,5.9-11.2,5.9-30.9S712.1,42.8,707.1,37.6z"/>
</g>
</svg>
