<?xml version="1.0" encoding="utf-8"?>
<!-- Generator: Adobe Illustrator 26.3.1, SVG Export Plug-In . SVG Version: 6.00 Build 0)  -->
<svg version="1.1" id="Capa_1" xmlns="http://www.w3.org/2000/svg" xmlns:xlink="http://www.w3.org/1999/xlink" x="0px" y="0px"
	 viewBox="0 0 350 350" style="enable-background:new 0 0 350 350;" xml:space="preserve">
<style type="text/css">
	.st0{fill:#00FF93;}
	.st1{fill:#FFFFFF;}
</style>
<path class="st0" d="M130.3,243"/>
<path class="st0" d="M182.5,206.4c-0.9,0.2-1.2,0.4-2.1-0.5l-2.9-3c-1.1-1.1-1.1-1.1-2.3-0.8l-5.8,1.7c-1.2,0.4-1.2,0.4-0.7,1.6
	l1.7,3.3c0.4,0.9,0.1,1.1-0.8,1.3l-3.9,1.1c-0.7,0.2-1.3,0.4-1.8-0.7l-20.2-41.5c-0.4-0.9-0.4-1.2,0.7-1.5l3.5-1
	c1.1-0.3,1.4-0.2,2.2,0.6l36.7,36.8c0.9,0.9,0.3,1.1-0.4,1.3L182.5,206.4z M164.5,197.2c0.7,1.2,0.7,1.2,2,0.9l3.7-1.1
	c1.3-0.4,1.3-0.4,0.3-1.5L157.3,182c-0.3-0.3-0.7-0.2-0.5,0.2L164.5,197.2z"/>
<path class="st0" d="M179.4,157.6c5.5-1.6,12.7,0,18.6,8.2l3.7,5.1c5.9,8.1,3.1,12.6-2.4,14.2l-2,0.6c-0.6,0.2-0.4,0.5,0.2,1.4
	l8.3,11.4c0.6,0.9,0.5,1.3-0.5,1.6l-3.9,1.1c-1.1,0.3-1.5,0.1-2.2-0.8L171,161.4c-0.6-0.9-0.5-1.3,0.5-1.6L179.4,157.6z M194,179.9
	l1.3-0.4c2-0.6,3.1-2.3,0.9-5.4l-5.8-7.9c-2.2-3.1-5-3.7-7-3.1l-1.3,0.4c-1.3,0.4-1.3,0.4-0.5,1.6l10.2,14
	C192.7,180.3,192.7,180.3,194,179.9z"/>
<path class="st0" d="M123.4,173.6c5.5-1.6,12.7,0,18.6,8.2l3.7,5.1c5.9,8.1,3.1,12.6-2.4,14.2l-2,0.6c-0.6,0.2-0.4,0.5,0.2,1.4
	l8.3,11.4c0.6,0.9,0.5,1.3-0.5,1.6l-3.9,1.1c-1.1,0.3-1.5,0.1-2.2-0.8l-28.2-38.8c-0.6-0.9-0.5-1.3,0.5-1.6L123.4,173.6z M138,196
	l1.3-0.4c2-0.6,3.1-2.3,0.9-5.4l-5.8-7.9c-2.2-3.1-5-3.7-7-3.1l-1.3,0.4c-1.3,0.4-1.3,0.4-0.5,1.6l10.2,14
	C136.7,196.4,136.7,196.4,138,196z"/>
<path class="st0" d="M222.8,158.3l1.4,1.9c3.9,5.4,4.2,8.6,3,10.7l16.7,16.4c0.9,0.9,0.6,1.3,0.1,1.5l-4.1,1.2
	c-0.9,0.2-1.2,0.4-2.1-0.5l-14.9-14.9c-0.5-0.5-0.9-0.4-1.2-0.3l-1.2,0.4c-1.3,0.4-1.3,0.4-0.5,1.6l10.8,14.9
	c0.6,0.9,0.5,1.3-0.5,1.6l-3.9,1.1c-1,0.3-1.5,0.1-2.2-0.8L196,154.2c-0.6-0.9-0.5-1.3,0.5-1.6l8.5-2.4
	C210.5,148.6,216.9,150.2,222.8,158.3z M206.8,156c-1.3,0.4-1.3,0.4-0.5,1.6l8.2,11.2c0.9,1.2,0.9,1.2,2.2,0.8l2-0.6
	c2-0.6,2.4-2.1,0.2-5.1l-3.8-5.2c-2.2-3.1-4.3-3.9-6.4-3.3L206.8,156z"/>
<path class="st0" d="M310,156.7c5.9,8.1,3.1,12.6-2.4,14.2s-12.7,0-18.6-8.2l-14-19.3c-5.9-8.1-3.1-12.6,2.4-14.2
	c5.5-1.6,12.7,0,18.6,8.2L310,156.7z M288.3,137.7c-2.2-3.1-5-3.7-7-3.1c-2,0.6-3.1,2.3-0.9,5.4l16.2,22.4c2.2,3.1,5,3.7,7,3.1
	c2-0.6,3.1-2.3,0.9-5.4L288.3,137.7z"/>
<path class="st1" d="M262.9,170.2c5.9,8.1,3.1,12.6-2.4,14.2s-12.7,0-18.6-8.2l-14-19.3c-5.9-8.1-3.1-12.6,2.4-14.2
	c5.5-1.6,12.7,0,18.6,8.2L262.9,170.2z M241.2,151.2c-2.2-3.1-5-3.7-7-3.1c-2,0.6-3.1,2.3-0.9,5.4l16.2,22.4c2.2,3.1,5,3.7,7,3.1
	c2-0.6,3.1-2.3,0.9-5.4L241.2,151.2z"/>
<path class="st0" d="M164.8,258.5c0.1-1.2,0.4-1.7,1.5-2l3.8-1.1c0.9-0.2,1.3,0,1.2,1.3c-0.2,2.8,1,4.8,3.6,4c2.6-0.8,4-3.3,4.4-5.4
	c1.9-9-12-13.2-11.8-25c0.1-6.1,4.5-12.5,10.5-14.2c4.5-1.3,8.6,1.3,8.7,7c0,1.9-0.2,2.3-1.5,2.7l-3.6,1c-1,0.3-1.3,0-1.2-1.1
	c0.2-2.6-1.1-3.5-2.9-2.9c-3,0.9-3.6,4.2-3.5,5.6c0.2,7.9,11.5,11.9,11.9,22.9c0.3,6.3-4.6,14.2-11.4,16.1
	C168.4,269.1,164.2,264.9,164.8,258.5z"/>
<path class="st0" d="M206.4,208.2l17.1-4.9c1-0.3,1.3,0,1.2,1.1l-0.3,3.9c-0.1,1.1-0.4,1.5-1.4,1.8l-3.9,1.1
	c-1.3,0.4-1.3,0.4-1.4,1.8l-2.9,41.1c-0.1,1.1-0.4,1.5-1.4,1.8l-3.9,1.1c-1,0.3-1.3,0-1.2-1.1l2.9-41.1c0.1-1.5,0.1-1.5-1.1-1.1
	l-4,1.1c-1,0.3-1.3,0-1.2-1.1l0.3-3.9C205.1,208.9,205.4,208.5,206.4,208.2z"/>
<path class="st0" d="M239.5,238.2c-0.9,0.2-1.2,0.4-1.4-0.7l-0.3-3.8c-0.2-1.4-0.2-1.4-1.3-1l-5.8,1.7c-1.2,0.4-1.2,0.4-1.6,1.9
	l-0.9,4.1c-0.3,1.1-0.7,1.3-1.5,1.5l-3.9,1.1c-0.7,0.2-1.3,0.4-1-0.9l11.1-40.2c0.3-1.1,0.5-1.4,1.5-1.7l4.5-1.3
	c1.1-0.3,1.2-0.1,1.4,0.9l4.5,35.7c0.1,1.2-0.5,1.4-1.2,1.6L239.5,238.2z M231.1,226.2c-0.3,1.5-0.3,1.5,1,1.1l3.7-1.1
	c1.3-0.4,1.3-0.4,1.2-1.8l-1.2-15.9c0-0.3-0.4-0.2-0.5,0.2L231.1,226.2z"/>
<path class="st0" d="M271.7,202.7l-0.2,2.3c-0.5,6.6-2.4,10.4-4.8,13l2.4,20.5c0.2,1.1-0.4,1.6-0.9,1.8l-4.1,1.2
	c-0.9,0.2-1.2,0.4-1.4-0.7l-2-18.6c-0.1-0.6-0.5-0.5-0.7-0.4l-1.2,0.4c-1.3,0.4-1.3,0.4-1.4,1.8l-1.3,18.4c-0.1,1.1-0.4,1.5-1.4,1.8
	l-3.9,1.1c-1,0.3-1.3,0-1.2-1.1l3.3-47.9c0.1-1.1,0.4-1.5,1.4-1.8l8.5-2.4C268.2,190.5,272.4,192.7,271.7,202.7z M260.3,199
	c-1.3,0.4-1.3,0.4-1.4,1.8l-1,13.9c-0.1,1.5-0.1,1.5,1.2,1.1l2-0.6c2-0.6,3.4-2.4,3.6-6.1l0.4-6.4c0.3-3.8-0.9-4.9-2.9-4.3
	L260.3,199z"/>
<path class="st0" d="M287.8,184.9c5.5-1.6,10.2,0.8,9.5,10.8l-1.6,23.2c-0.7,10-6,15.2-11.5,16.8l-7.9,2.3c-1,0.3-1.3,0-1.2-1.1
	l3.3-47.9c0.1-1.1,0.4-1.5,1.4-1.8L287.8,184.9z M283.4,229.2l1.3-0.4c2-0.6,4-2.6,4.3-6.4l1.9-26.7c0.3-3.8-1.5-4.7-3.6-4.1
	l-1.3,0.4c-1.3,0.4-1.3,0.4-1.4,1.8l-2.4,34.2C282.1,229.6,282.1,229.6,283.4,229.2z"/>
<path class="st0" d="M300.8,229.5l3.3-47.9c0.1-1.1,0.4-1.5,1.4-1.8l13.9-4c1-0.3,1.3,0,1.2,1.1l-0.3,3.9c-0.1,1.1-0.4,1.5-1.4,1.8
	l-7.3,2.1c-1.3,0.4-1.3,0.4-1.4,1.8l-0.8,10.9c-0.1,1.5-0.1,1.5,1.2,1.1l7.3-2.1c1-0.3,1.3,0,1.2,1.1l-0.3,3.9
	c-0.1,1.1-0.4,1.5-1.4,1.8l-7.3,2.1c-1.3,0.4-1.3,0.4-1.4,1.8l-1,13.6c-0.1,1.5-0.1,1.5,1.2,1.1l7.3-2.1c1-0.3,1.3,0,1.2,1.1
	l-0.3,3.9c-0.1,1.1-0.4,1.5-1.4,1.8l-13.9,4C301,230.9,300.7,230.6,300.8,229.5z"/>
<path class="st1" d="M273.1,154.3c-0.3,0.1-0.7,0.1-1.1-0.2l-13.3-7.5c-0.3-0.2-0.4,0-0.3,0.1l6.4,9.1c0.4,0.5,0.3,0.7-0.3,0.9
	l-3.3,0.9c-0.6,0.2-0.9,0-1.3-0.5l-13.4-18.5c-0.4-0.5-0.3-0.7,0.3-0.9l2.7-0.8c0.4-0.1,0.7-0.1,1.1,0.2l13,7c0.3,0.2,0.4,0,0.3-0.1
	l-6.2-8.6c-0.4-0.5-0.3-0.7,0.3-0.9l3.3-0.9c0.6-0.2,0.9,0,1.3,0.5l13.4,18.5c0.4,0.5,0.3,0.7-0.3,0.9L273.1,154.3z"/>
<path class="st0" d="M263.5,160.6l13.8-4c0.6-0.2,0.9,0,1.3,0.5l2,2.8c0.4,0.5,0.3,0.7-0.3,0.9l-3.3,0.9c-0.8,0.2-0.8,0.2-0.3,0.9
	l8.7,13.4c0.4,0.5,0.3,0.7-0.3,0.9l-4.2,1.2c-0.6,0.2-0.9,0-1.3-0.5l-8.7-13.4c-0.5-0.7-0.5-0.7-1.2-0.5l-3.3,0.9
	c-0.6,0.2-0.9,0-1.3-0.5l-2-2.8C262.8,161,262.9,160.8,263.5,160.6z"/>
<path class="st0" d="M221.6,253.6c-1,0.3-1.3,0-1.2-1.1l0.3-3.9c0.1-1.1,0.4-1.5,1.4-1.8l21.9-6.3c1-0.3,1.3,0,1.2,1.1l-0.3,3.9
	c-0.1,1.1-0.4,1.5-1.4,1.8L221.6,253.6z"/>
<path class="st0" d="M157.2,164l7.2-2.1c0.3-0.1,0.5,0,0.7,0.2l6,9c0.2,0.3,0.1,0.8-0.3,0.9l-3.9,1.2c-0.2,0.1-0.4,0-0.6-0.1
	l-9.3-8.1C156.6,164.7,156.7,164.1,157.2,164z"/>
<path class="st0" d="M143.9,274.4l2.8-47.7c0.1-1.1,0.4-1.5,1.4-1.8l14.4-4.2c1-0.3,1.3,0,1.2,1.1l-0.3,3.9
	c-0.1,1.1-0.4,1.5-1.4,1.8l-7.3,2.1c-1.3,0.4-1.3,0.4-1.4,1.8l-0.8,10.9c-0.1,1.5-0.1,1.5,1.2,1.1l7.3-2.1c1-0.3,1.3,0,1.2,1.1
	l-0.3,3.9c-0.1,1.1-0.4,1.5-1.4,1.8l-7.3,2.1c-1.3,0.4-1.3,0.4-1.4,1.8l-1,13.6c-0.1,1.5-0.1,1.5,1.2,1.1l7.3-2.1
	c1-0.3,1.3,0,1.2,1.1l-0.3,3.9c-0.1,1.1-0.4,1.5-1.4,1.8l-13.9,4C144.1,275.8,143.8,275.5,143.9,274.4z"/>
<path class="st0" d="M99.2,256.2c0,0,8.8-2.3,13.2-10.1c0,0-16.8,12.5-41.6,0.4c0,0,13.4,0.9,19.1-14.3c0,0,3.1-8.9,14.4-14.3
	c-3.9,0.2-9.3,1.2-13.6,4.6c0,0,10.4-19.9,37.5-12.5c0.8,0.3,1.5,0.6,2.2,0.9c-4.5-6.6-9.2-10.1-9.2-10.1
	c-22.9-14.9-55.3-13.8-85.4,25c0,0,13.8-8.3,30.1-2.7c0,0-37.9,4-50.1,54.8c0,0,14.6-19.3,43.1-4.4c0,0,16.4,9,37.5,2
	c-5,4.9-12.8,10.7-22.8,11.4c0,0,40.7,15.4,62.3-31.7c1.4-4.2,2.3-8.2,2.7-12C132.8,253.1,124.6,255.5,99.2,256.2z"/>
</svg>
