<?xml version="1.0" encoding="utf-8"?>
<!-- Generator: Adobe Illustrator 26.3.1, SVG Export Plug-In . SVG Version: 6.00 Build 0)  -->
<svg version="1.1" id="Capa_1" xmlns="http://www.w3.org/2000/svg" xmlns:xlink="http://www.w3.org/1999/xlink" x="0px" y="0px"
	 viewBox="0 0 350 350" style="enable-background:new 0 0 350 350;" xml:space="preserve">
<style type="text/css">
	.st0{fill:#00FF93;}
	.st1{fill:#34414C;}
</style>
<path class="st0" d="M97.5,215.3c0,0,8.8-2.3,13.2-10.1c0,0-16.8,12.5-41.6,0.4c0,0,13.4,0.9,19.1-14.3c0,0,3.1-8.9,14.4-14.3
	c-3.9,0.2-9.3,1.2-13.6,4.6c0,0,10.4-19.9,37.5-12.5c0.8,0.3,1.5,0.6,2.2,0.9c-4.5-6.6-9.2-10.1-9.2-10.1
	c-22.9-14.9-55.3-13.8-85.4,25c0,0,13.8-8.3,30.1-2.7c0,0-37.9,4-50.1,54.8c0,0,14.6-19.3,43.1-4.4c0,0,16.4,9,37.5,2
	c-5,4.9-12.8,10.7-22.8,11.4c0,0,40.7,15.4,62.3-31.7c1.4-4.2,2.3-8.2,2.7-12C131.1,212.1,123,214.6,97.5,215.3z"/>
<path class="st0" d="M270.2,72.2c13.8-4,28.5,1.1,37,12.7l29.2,40.3l-3,49.4c-0.9,14.4-10.7,26.7-24.6,30.7l-179.2,51l4.4-72.5
	l-43.3-59.6L270.2,72.2z"/>
<path class="st1" d="M128.6,202"/>
<path class="st1" d="M180.9,165.5c-0.9,0.2-1.2,0.4-2.1-0.5l-2.9-3c-1.1-1.1-1.1-1.1-2.3-0.8l-5.8,1.7c-1.2,0.4-1.2,0.4-0.7,1.6
	l1.7,3.3c0.4,0.9,0.1,1.1-0.8,1.3l-3.9,1.1c-0.7,0.2-1.3,0.4-1.8-0.7L142,128.1c-0.4-0.9-0.4-1.2,0.7-1.5l3.5-1
	c1.1-0.3,1.4-0.2,2.2,0.6l36.7,36.8c0.9,0.9,0.3,1.1-0.4,1.3L180.9,165.5z M162.8,156.3c0.7,1.2,0.7,1.2,2,0.9l3.7-1.1
	c1.3-0.4,1.3-0.4,0.3-1.5L155.6,141c-0.3-0.3-0.7-0.2-0.5,0.2L162.8,156.3z"/>
<path class="st1" d="M177.7,116.6c5.5-1.6,12.7,0,18.6,8.2l3.7,5.1c5.9,8.1,3.1,12.6-2.4,14.2l-2,0.6c-0.6,0.2-0.4,0.5,0.2,1.4
	l8.3,11.4c0.6,0.9,0.5,1.3-0.5,1.6l-3.9,1.1c-1.1,0.3-1.5,0.1-2.2-0.8l-28.2-38.8c-0.6-0.9-0.5-1.3,0.5-1.6L177.7,116.6z M192.3,139
	l1.3-0.4c2-0.6,3.1-2.3,0.9-5.4l-5.8-7.9c-2.2-3.1-5-3.7-7-3.1l-1.3,0.4c-1.3,0.4-1.3,0.4-0.5,1.6l10.2,14
	C191,139.3,191,139.3,192.3,139z"/>
<path class="st1" d="M121.7,132.7c5.5-1.6,12.7,0,18.6,8.2l3.7,5.1c5.9,8.1,3.1,12.6-2.4,14.2l-2,0.6c-0.6,0.2-0.4,0.5,0.2,1.4
	l8.3,11.4c0.6,0.9,0.5,1.3-0.5,1.6l-3.9,1.1c-1.1,0.3-1.5,0.1-2.2-0.8l-28.2-38.8c-0.6-0.9-0.5-1.3,0.5-1.6L121.7,132.7z M136.4,155
	l1.3-0.4c2-0.6,3.1-2.3,0.9-5.4l-5.8-7.9c-2.2-3.1-5-3.7-7-3.1l-1.3,0.4c-1.3,0.4-1.3,0.4-0.5,1.6l10.2,14
	C135.1,155.4,135.1,155.4,136.4,155z"/>
<path class="st1" d="M221.1,117.4l1.4,1.9c3.9,5.4,4.2,8.6,3,10.7l16.7,16.4c0.9,0.9,0.6,1.3,0.1,1.5l-4.1,1.2
	c-0.9,0.2-1.2,0.4-2.1-0.5l-14.9-14.9c-0.5-0.5-0.9-0.4-1.2-0.3l-1.2,0.4c-1.3,0.4-1.3,0.4-0.5,1.6l10.8,14.9
	c0.6,0.9,0.5,1.3-0.5,1.6l-3.9,1.1c-1,0.3-1.5,0.1-2.2-0.8l-28.2-38.8c-0.6-0.9-0.5-1.3,0.5-1.6l8.5-2.4
	C208.8,107.7,215.2,109.3,221.1,117.4z M205.1,115c-1.3,0.4-1.3,0.4-0.5,1.6l8.2,11.2c0.9,1.2,0.9,1.2,2.2,0.8l2-0.6
	c2-0.6,2.4-2.1,0.2-5.1l-3.8-5.2c-2.2-3.1-4.3-3.9-6.4-3.3L205.1,115z"/>
<path class="st1" d="M308.3,115.7c5.9,8.1,3.1,12.6-2.4,14.2c-5.5,1.6-12.7,0-18.6-8.2l-14-19.3c-5.9-8.1-3.1-12.6,2.4-14.2
	c5.5-1.6,12.7,0,18.6,8.2L308.3,115.7z M286.6,96.8c-2.2-3.1-5-3.7-7-3.1s-3.1,2.3-0.9,5.4l16.2,22.4c2.2,3.1,5,3.7,7,3.1
	s3.1-2.3,0.9-5.4L286.6,96.8z"/>
<path class="st1" d="M163.1,217.5c0.1-1.2,0.4-1.7,1.5-2l3.8-1.1c0.9-0.2,1.3,0,1.2,1.3c-0.2,2.8,1,4.8,3.6,4c2.6-0.8,4-3.3,4.4-5.4
	c1.9-9-12-13.2-11.8-25c0.1-6.1,4.5-12.5,10.5-14.2c4.5-1.3,8.6,1.3,8.7,7c0,1.9-0.2,2.3-1.5,2.7l-3.6,1c-1,0.3-1.3,0-1.2-1.1
	c0.2-2.6-1.1-3.5-2.9-2.9c-3,0.9-3.6,4.2-3.5,5.6c0.2,7.9,11.5,11.9,11.9,22.9c0.3,6.3-4.6,14.2-11.4,16.1
	C166.8,228.1,162.6,223.9,163.1,217.5z"/>
<path class="st1" d="M204.7,167.3l17.1-4.9c1-0.3,1.3,0,1.2,1.1l-0.3,3.9c-0.1,1.1-0.4,1.5-1.4,1.8l-3.9,1.1
	c-1.3,0.4-1.3,0.4-1.4,1.8l-2.9,41.1c-0.1,1.1-0.4,1.5-1.4,1.8l-3.9,1.1c-1,0.3-1.3,0-1.2-1.1l2.9-41.1c0.1-1.5,0.1-1.5-1.1-1.1
	l-4,1.1c-1,0.3-1.3,0-1.2-1.1l0.3-3.9C203.4,168,203.7,167.5,204.7,167.3z"/>
<path class="st1" d="M237.8,197.3c-0.9,0.2-1.2,0.4-1.4-0.7l-0.3-3.8c-0.2-1.4-0.2-1.4-1.3-1l-5.8,1.7c-1.2,0.4-1.2,0.4-1.6,1.9
	l-0.9,4.1c-0.3,1.1-0.7,1.3-1.5,1.5l-3.9,1.1c-0.7,0.2-1.3,0.4-1-0.9l11.1-40.2c0.3-1.1,0.5-1.4,1.5-1.7l4.5-1.3
	c1.1-0.3,1.2-0.1,1.4,0.9l4.5,35.7c0.1,1.2-0.5,1.4-1.2,1.6L237.8,197.3z M229.5,185.2c-0.3,1.5-0.3,1.5,1,1.1l3.7-1.1
	c1.3-0.4,1.3-0.4,1.2-1.8l-1.2-15.9c0-0.3-0.4-0.2-0.5,0.2L229.5,185.2z"/>
<path class="st1" d="M270,161.8l-0.2,2.3c-0.5,6.6-2.4,10.4-4.8,13l2.4,20.5c0.2,1.1-0.4,1.6-0.9,1.8l-4.1,1.2
	c-0.9,0.2-1.2,0.4-1.4-0.7l-2-18.6c-0.1-0.6-0.5-0.5-0.7-0.4l-1.2,0.4c-1.3,0.4-1.3,0.4-1.4,1.8l-1.3,18.4c-0.1,1.1-0.4,1.5-1.4,1.8
	l-3.9,1.1c-1,0.3-1.3,0-1.2-1.1l3.3-47.9c0.1-1.1,0.4-1.5,1.4-1.8l8.5-2.4C266.5,149.5,270.7,151.8,270,161.8z M258.6,158.1
	c-1.3,0.4-1.3,0.4-1.4,1.8l-1,13.9c-0.1,1.5-0.1,1.5,1.2,1.1l2-0.6c2-0.6,3.4-2.4,3.6-6.1l0.4-6.4c0.3-3.8-0.9-4.9-2.9-4.3
	L258.6,158.1z"/>
<path class="st1" d="M286.1,143.9c5.5-1.6,10.2,0.8,9.5,10.8l-1.6,23.2c-0.7,10-6,15.2-11.5,16.8l-7.9,2.3c-1,0.3-1.3,0-1.2-1.1
	l3.3-47.9c0.1-1.1,0.4-1.5,1.4-1.8L286.1,143.9z M281.7,188.3l1.3-0.4c2-0.6,4-2.6,4.3-6.4l1.9-26.7c0.3-3.8-1.5-4.7-3.6-4.1
	l-1.3,0.4c-1.3,0.4-1.3,0.4-1.4,1.8l-2.4,34.2C280.4,188.7,280.4,188.7,281.7,188.3z"/>
<path class="st1" d="M299.1,188.6l3.3-47.9c0.1-1.1,0.4-1.5,1.4-1.8l13.9-4c1-0.3,1.3,0,1.2,1.1l-0.3,3.9c-0.1,1.1-0.4,1.5-1.4,1.8
	l-7.3,2.1c-1.3,0.4-1.3,0.4-1.4,1.8l-0.8,10.9c-0.1,1.5-0.1,1.5,1.2,1.1l7.3-2.1c1-0.3,1.3,0,1.2,1.1l-0.3,3.9
	c-0.1,1.1-0.4,1.5-1.4,1.8l-7.3,2.1c-1.3,0.4-1.3,0.4-1.4,1.8l-1,13.6c-0.1,1.5-0.1,1.5,1.2,1.1l7.3-2.1c1-0.3,1.3,0,1.2,1.1
	l-0.3,3.9c-0.1,1.1-0.4,1.5-1.4,1.8l-13.9,4C299.3,189.9,299,189.7,299.1,188.6z"/>
<path class="st1" d="M142.2,233.5l2.8-47.7c0.1-1.1,0.4-1.5,1.4-1.8l14.4-4.2c1-0.3,1.3,0,1.2,1.1l-0.3,3.9
	c-0.1,1.1-0.4,1.5-1.4,1.8l-7.3,2.1c-1.3,0.4-1.3,0.4-1.4,1.8l-0.8,10.9c-0.1,1.5-0.1,1.5,1.2,1.1l7.3-2.1c1-0.3,1.3,0,1.2,1.1
	l-0.3,3.9c-0.1,1.1-0.4,1.5-1.4,1.8l-7.3,2.1c-1.3,0.4-1.3,0.4-1.4,1.8l-1,13.6c-0.1,1.5-0.1,1.5,1.2,1.1l7.3-2.1
	c1-0.3,1.3,0,1.2,1.1l-0.3,3.9c-0.1,1.1-0.4,1.5-1.4,1.8l-13.9,4C142.4,234.8,142.1,234.6,142.2,233.5z"/>
<g>
	<path class="st1" d="M261.3,129.2c5.9,8.1,3.1,12.6-2.4,14.2s-12.7,0-18.6-8.2l-14-19.3c-5.9-8.1-3.1-12.6,2.4-14.2
		c5.5-1.6,12.7,0,18.6,8.2L261.3,129.2z M239.5,110.3c-2.2-3.1-5-3.7-7-3.1s-3.1,2.3-0.9,5.4l16.2,22.4c2.2,3.1,5,3.7,7,3.1
		c2-0.6,3.1-2.3,0.9-5.4L239.5,110.3z"/>
	<path class="st1" d="M271.4,113.4c-0.3,0.1-0.7,0.1-1.1-0.2l-13.3-7.5c-0.3-0.2-0.4,0-0.3,0.1l6.4,9.1c0.4,0.5,0.3,0.7-0.3,0.9
		l-3.3,0.9c-0.6,0.2-0.9,0-1.3-0.5L245,97.7c-0.4-0.5-0.3-0.7,0.3-0.9l2.7-0.8c0.4-0.1,0.7-0.1,1.1,0.2l13,7c0.3,0.2,0.4,0,0.3-0.1
		l-6.2-8.6c-0.4-0.5-0.3-0.7,0.3-0.9l3.3-0.9c0.6-0.2,0.9,0,1.3,0.5l13.4,18.5c0.4,0.5,0.3,0.7-0.3,0.9L271.4,113.4z"/>
</g>
<path class="st1" d="M261.8,119.7l13.8-4c0.6-0.2,0.9,0,1.3,0.5l2,2.8c0.4,0.5,0.3,0.7-0.3,0.9l-3.3,0.9c-0.8,0.2-0.8,0.2-0.3,0.9
	l8.7,13.4c0.4,0.5,0.3,0.7-0.3,0.9l-4.2,1.2c-0.6,0.2-0.9,0-1.3-0.5l-8.7-13.4c-0.5-0.7-0.5-0.7-1.2-0.5l-3.3,0.9
	c-0.6,0.2-0.9,0-1.3-0.5l-2-2.8C261.2,120.1,261.2,119.9,261.8,119.7z"/>
<path class="st1" d="M219.9,212.7c-1,0.3-1.3,0-1.2-1.1l0.3-3.9c0.1-1.1,0.4-1.5,1.4-1.8l21.9-6.3c1-0.3,1.3,0,1.2,1.1l-0.3,3.9
	c-0.1,1.1-0.4,1.5-1.4,1.8L219.9,212.7z"/>
<path class="st1" d="M155.5,123l7.2-2.1c0.3-0.1,0.5,0,0.7,0.2l6,9c0.2,0.3,0.1,0.8-0.3,0.9l-3.9,1.2c-0.2,0.1-0.4,0-0.6-0.1
	l-9.3-8.1C154.9,123.7,155,123.2,155.5,123z"/>
<path class="st0" d="M171.5,267.5l-36.2,10.3l6-30.8l60.4-17.3l-1.2,6C197.6,251,186.4,263.2,171.5,267.5z"/>
<path class="st0" d="M120.3,92.3l-36.2,10.4l21.4,22.9l60.4-17.4l-4.2-4.5C151.1,92.5,135.1,88.1,120.3,92.3z"/>
</svg>
