<?xml version="1.0" encoding="utf-8"?>
<!-- Generator: Adobe Illustrator 26.3.1, SVG Export Plug-In . SVG Version: 6.00 Build 0)  -->
<svg version="1.1" id="Capa_1" xmlns="http://www.w3.org/2000/svg" xmlns:xlink="http://www.w3.org/1999/xlink" x="0px" y="0px"
	 viewBox="0 0 350 350" style="enable-background:new 0 0 350 350;" xml:space="preserve">
<style type="text/css">
	.st0{fill:#34414C;}
	.st1{fill:#FFFFFF;}
	.st2{fill:#00FF93;}
</style>
<path class="st0" d="M94.5,209.3c0,0,8.8-2.3,13.2-10.1c0,0-16.8,12.5-41.6,0.4c0,0,13.4,0.9,19.1-14.3c0,0,3.1-8.9,14.4-14.3
	c-3.9,0.2-9.3,1.2-13.6,4.6c0,0,10.4-19.9,37.5-12.5c0.8,0.3,1.5,0.6,2.2,0.9c-4.5-6.6-9.2-10.1-9.2-10.1
	c-22.9-14.9-55.3-13.8-85.4,25c0,0,13.8-8.3,30.1-2.7c0,0-37.9,4-50.1,54.8c0,0,14.6-19.3,43.1-4.4c0,0,16.4,9,37.5,2
	c-5,4.9-12.8,10.7-22.8,11.4c0,0,40.7,15.4,62.3-31.7c1.4-4.2,2.3-8.2,2.7-12C128.1,206.1,120,208.6,94.5,209.3z"/>
<path class="st0" d="M267.2,66.2c13.8-4,28.5,1.1,37,12.7l29.2,40.3l-3,49.4c-0.9,14.4-10.7,26.7-24.6,30.7l-179.2,51l4.4-72.5
	l-43.3-59.6L267.2,66.2z"/>
<path class="st0" d="M125.6,196"/>
<path class="st1" d="M177.9,159.5c-0.9,0.2-1.2,0.4-2.1-0.5l-2.9-3c-1.1-1.1-1.1-1.1-2.3-0.8l-5.8,1.7c-1.2,0.4-1.2,0.4-0.7,1.6
	l1.7,3.3c0.4,0.9,0.1,1.1-0.8,1.3l-3.9,1.1c-0.7,0.2-1.3,0.4-1.8-0.7L139,122.1c-0.4-0.9-0.4-1.2,0.7-1.5l3.5-1
	c1.1-0.3,1.4-0.2,2.2,0.6l36.7,36.8c0.9,0.9,0.3,1.1-0.4,1.3L177.9,159.5z M159.8,150.3c0.7,1.2,0.7,1.2,2,0.9l3.7-1.1
	c1.3-0.4,1.3-0.4,0.3-1.5L152.6,135c-0.3-0.3-0.7-0.2-0.5,0.2L159.8,150.3z"/>
<path class="st1" d="M174.7,110.6c5.5-1.6,12.7,0,18.6,8.2l3.7,5.1c5.9,8.1,3.1,12.6-2.4,14.2l-2,0.6c-0.6,0.2-0.4,0.5,0.2,1.4
	l8.3,11.4c0.6,0.9,0.5,1.3-0.5,1.6l-3.9,1.1c-1.1,0.3-1.5,0.1-2.2-0.8l-28.2-38.8c-0.6-0.9-0.5-1.3,0.5-1.6L174.7,110.6z M189.3,133
	l1.3-0.4c2-0.6,3.1-2.3,0.9-5.4l-5.8-7.9c-2.2-3.1-5-3.7-7-3.1l-1.3,0.4c-1.3,0.4-1.3,0.4-0.5,1.6l10.2,14
	C188,133.3,188,133.3,189.3,133z"/>
<path class="st1" d="M118.7,126.7c5.5-1.6,12.7,0,18.6,8.2l3.7,5.1c5.9,8.1,3.1,12.6-2.4,14.2l-2,0.6c-0.6,0.2-0.4,0.5,0.2,1.4
	l8.3,11.4c0.6,0.9,0.5,1.3-0.5,1.6l-3.9,1.1c-1.1,0.3-1.5,0.1-2.2-0.8l-28.2-38.8c-0.6-0.9-0.5-1.3,0.5-1.6L118.7,126.7z M133.4,149
	l1.3-0.4c2-0.6,3.1-2.3,0.9-5.4l-5.8-7.9c-2.2-3.1-5-3.7-7-3.1l-1.3,0.4c-1.3,0.4-1.3,0.4-0.5,1.6l10.2,14
	C132.1,149.4,132.1,149.4,133.4,149z"/>
<path class="st1" d="M218.1,111.4l1.4,1.9c3.9,5.4,4.2,8.6,3,10.7l16.7,16.4c0.9,0.9,0.6,1.3,0.1,1.5l-4.1,1.2
	c-0.9,0.2-1.2,0.4-2.1-0.5l-14.9-14.9c-0.5-0.5-0.9-0.4-1.2-0.3l-1.2,0.4c-1.3,0.4-1.3,0.4-0.5,1.6l10.8,14.9
	c0.6,0.9,0.5,1.3-0.5,1.6l-3.9,1.1c-1,0.3-1.5,0.1-2.2-0.8l-28.2-38.8c-0.6-0.9-0.5-1.3,0.5-1.6l8.5-2.4
	C205.8,101.7,212.2,103.3,218.1,111.4z M202.1,109c-1.3,0.4-1.3,0.4-0.5,1.6l8.2,11.2c0.9,1.2,0.9,1.2,2.2,0.8l2-0.6
	c2-0.6,2.4-2.1,0.2-5.1l-3.8-5.2c-2.2-3.1-4.3-3.9-6.4-3.3L202.1,109z"/>
<path class="st1" d="M305.3,109.7c5.9,8.1,3.1,12.6-2.4,14.2c-5.5,1.6-12.7,0-18.6-8.2l-14-19.3c-5.9-8.1-3.1-12.6,2.4-14.2
	c5.5-1.6,12.7,0,18.6,8.2L305.3,109.7z M283.6,90.8c-2.2-3.1-5-3.7-7-3.1s-3.1,2.3-0.9,5.4l16.2,22.4c2.2,3.1,5,3.7,7,3.1
	s3.1-2.3,0.9-5.4L283.6,90.8z"/>
<path class="st1" d="M160.1,211.5c0.1-1.2,0.4-1.7,1.5-2l3.8-1.1c0.9-0.2,1.3,0,1.2,1.3c-0.2,2.8,1,4.8,3.6,4c2.6-0.8,4-3.3,4.4-5.4
	c1.9-9-12-13.2-11.8-25c0.1-6.1,4.5-12.5,10.5-14.2c4.5-1.3,8.6,1.3,8.7,7c0,1.9-0.2,2.3-1.5,2.7l-3.6,1c-1,0.3-1.3,0-1.2-1.1
	c0.2-2.6-1.1-3.5-2.9-2.9c-3,0.9-3.6,4.2-3.5,5.6c0.2,7.9,11.5,11.9,11.9,22.9c0.3,6.3-4.6,14.2-11.4,16.1
	C163.8,222.1,159.6,217.9,160.1,211.5z"/>
<path class="st1" d="M201.7,161.3l17.1-4.9c1-0.3,1.3,0,1.2,1.1l-0.3,3.9c-0.1,1.1-0.4,1.5-1.4,1.8l-3.9,1.1
	c-1.3,0.4-1.3,0.4-1.4,1.8l-2.9,41.1c-0.1,1.1-0.4,1.5-1.4,1.8l-3.9,1.1c-1,0.3-1.3,0-1.2-1.1l2.9-41.1c0.1-1.5,0.1-1.5-1.1-1.1
	l-4,1.1c-1,0.3-1.3,0-1.2-1.1l0.3-3.9C200.4,162,200.7,161.5,201.7,161.3z"/>
<path class="st1" d="M234.8,191.3c-0.9,0.2-1.2,0.4-1.4-0.7l-0.3-3.8c-0.2-1.4-0.2-1.4-1.3-1l-5.8,1.7c-1.2,0.4-1.2,0.4-1.6,1.9
	l-0.9,4.1c-0.3,1.1-0.7,1.3-1.5,1.5l-3.9,1.1c-0.7,0.2-1.3,0.4-1-0.9l11.1-40.2c0.3-1.1,0.5-1.4,1.5-1.7l4.5-1.3
	c1.1-0.3,1.2-0.1,1.4,0.9l4.5,35.7c0.1,1.2-0.5,1.4-1.2,1.6L234.8,191.3z M226.5,179.2c-0.3,1.5-0.3,1.5,1,1.1l3.7-1.1
	c1.3-0.4,1.3-0.4,1.2-1.8l-1.2-15.9c0-0.3-0.4-0.2-0.5,0.2L226.5,179.2z"/>
<path class="st1" d="M267,155.8l-0.2,2.3c-0.5,6.6-2.4,10.4-4.8,13l2.4,20.5c0.2,1.1-0.4,1.6-0.9,1.8l-4.1,1.2
	c-0.9,0.2-1.2,0.4-1.4-0.7l-2-18.6c-0.1-0.6-0.5-0.5-0.7-0.4l-1.2,0.4c-1.3,0.4-1.3,0.4-1.4,1.8l-1.3,18.4c-0.1,1.1-0.4,1.5-1.4,1.8
	l-3.9,1.1c-1,0.3-1.3,0-1.2-1.1l3.3-47.9c0.1-1.1,0.4-1.5,1.4-1.8l8.5-2.4C263.5,143.5,267.7,145.8,267,155.8z M255.6,152.1
	c-1.3,0.4-1.3,0.4-1.4,1.8l-1,13.9c-0.1,1.5-0.1,1.5,1.2,1.1l2-0.6c2-0.6,3.4-2.4,3.6-6.1l0.4-6.4c0.3-3.8-0.9-4.9-2.9-4.3
	L255.6,152.1z"/>
<path class="st1" d="M283.1,137.9c5.5-1.6,10.2,0.8,9.5,10.8l-1.6,23.2c-0.7,10-6,15.2-11.5,16.8l-7.9,2.3c-1,0.3-1.3,0-1.2-1.1
	l3.3-47.9c0.1-1.1,0.4-1.5,1.4-1.8L283.1,137.9z M278.7,182.3l1.3-0.4c2-0.6,4-2.6,4.3-6.4l1.9-26.7c0.3-3.8-1.5-4.7-3.6-4.1
	l-1.3,0.4c-1.3,0.4-1.3,0.4-1.4,1.8l-2.4,34.2C277.4,182.7,277.4,182.7,278.7,182.3z"/>
<path class="st1" d="M296.1,182.6l3.3-47.9c0.1-1.1,0.4-1.5,1.4-1.8l13.9-4c1-0.3,1.3,0,1.2,1.1l-0.3,3.9c-0.1,1.1-0.4,1.5-1.4,1.8
	l-7.3,2.1c-1.3,0.4-1.3,0.4-1.4,1.8l-0.8,10.9c-0.1,1.5-0.1,1.5,1.2,1.1l7.3-2.1c1-0.3,1.3,0,1.2,1.1l-0.3,3.9
	c-0.1,1.1-0.4,1.5-1.4,1.8l-7.3,2.1c-1.3,0.4-1.3,0.4-1.4,1.8l-1,13.6c-0.1,1.5-0.1,1.5,1.2,1.1l7.3-2.1c1-0.3,1.3,0,1.2,1.1
	l-0.3,3.9c-0.1,1.1-0.4,1.5-1.4,1.8l-13.9,4C296.3,183.9,296,183.7,296.1,182.6z"/>
<path class="st1" d="M139.2,227.5l2.8-47.7c0.1-1.1,0.4-1.5,1.4-1.8l14.4-4.2c1-0.3,1.3,0,1.2,1.1l-0.3,3.9
	c-0.1,1.1-0.4,1.5-1.4,1.8l-7.3,2.1c-1.3,0.4-1.3,0.4-1.4,1.8l-0.8,10.9c-0.1,1.5-0.1,1.5,1.2,1.1l7.3-2.1c1-0.3,1.3,0,1.2,1.1
	l-0.3,3.9c-0.1,1.1-0.4,1.5-1.4,1.8l-7.3,2.1c-1.3,0.4-1.3,0.4-1.4,1.8l-1,13.6c-0.1,1.5-0.1,1.5,1.2,1.1l7.3-2.1
	c1-0.3,1.3,0,1.2,1.1l-0.3,3.9c-0.1,1.1-0.4,1.5-1.4,1.8l-13.9,4C139.4,228.8,139.1,228.6,139.2,227.5z"/>
<g>
	<path class="st2" d="M258.3,123.2c5.9,8.1,3.1,12.6-2.4,14.2s-12.7,0-18.6-8.2l-14-19.3c-5.9-8.1-3.1-12.6,2.4-14.2
		c5.5-1.6,12.7,0,18.6,8.2L258.3,123.2z M236.5,104.3c-2.2-3.1-5-3.7-7-3.1s-3.1,2.3-0.9,5.4l16.2,22.4c2.2,3.1,5,3.7,7,3.1
		c2-0.6,3.1-2.3,0.9-5.4L236.5,104.3z"/>
	<path class="st2" d="M268.4,107.4c-0.3,0.1-0.7,0.1-1.1-0.2l-13.3-7.5c-0.3-0.2-0.4,0-0.3,0.1l6.4,9.1c0.4,0.5,0.3,0.7-0.3,0.9
		l-3.3,0.9c-0.6,0.2-0.9,0-1.3-0.5L242,91.7c-0.4-0.5-0.3-0.7,0.3-0.9l2.7-0.8c0.4-0.1,0.7-0.1,1.1,0.2l13,7c0.3,0.2,0.4,0,0.3-0.1
		l-6.2-8.6c-0.4-0.5-0.3-0.7,0.3-0.9l3.3-0.9c0.6-0.2,0.9,0,1.3,0.5l13.4,18.5c0.4,0.5,0.3,0.7-0.3,0.9L268.4,107.4z"/>
</g>
<path class="st1" d="M258.8,113.7l13.8-4c0.6-0.2,0.9,0,1.3,0.5l2,2.8c0.4,0.5,0.3,0.7-0.3,0.9l-3.3,0.9c-0.8,0.2-0.8,0.2-0.3,0.9
	l8.7,13.4c0.4,0.5,0.3,0.7-0.3,0.9l-4.2,1.2c-0.6,0.2-0.9,0-1.3-0.5l-8.7-13.4c-0.5-0.7-0.5-0.7-1.2-0.5l-3.3,0.9
	c-0.6,0.2-0.9,0-1.3-0.5l-2-2.8C258.2,114.1,258.2,113.9,258.8,113.7z"/>
<path class="st1" d="M216.9,206.7c-1,0.3-1.3,0-1.2-1.1l0.3-3.9c0.1-1.1,0.4-1.5,1.4-1.8l21.9-6.3c1-0.3,1.3,0,1.2,1.1l-0.3,3.9
	c-0.1,1.1-0.4,1.5-1.4,1.8L216.9,206.7z"/>
<path class="st1" d="M152.5,117l7.2-2.1c0.3-0.1,0.5,0,0.7,0.2l6,9c0.2,0.3,0.1,0.8-0.3,0.9l-3.9,1.2c-0.2,0.1-0.4,0-0.6-0.1
	l-9.3-8.1C151.9,117.7,152,117.2,152.5,117z"/>
<path class="st0" d="M168.5,261.5l-36.2,10.3l6-30.8l60.4-17.3l-1.2,6C194.6,245,183.4,257.2,168.5,261.5z"/>
<path class="st0" d="M117.3,86.3L81.1,96.8l21.4,22.9l60.4-17.4l-4.2-4.5C148.1,86.5,132.1,82.1,117.3,86.3z"/>
</svg>
