<?xml version="1.0" encoding="utf-8"?>
<!-- Generator: Adobe Illustrator 26.3.1, SVG Export Plug-In . SVG Version: 6.00 Build 0)  -->
<svg version="1.1" id="Capa_1" xmlns="http://www.w3.org/2000/svg" xmlns:xlink="http://www.w3.org/1999/xlink" x="0px" y="0px"
	 viewBox="0 0 780 780" style="enable-background:new 0 0 780 780;" xml:space="preserve">
<style type="text/css">
	.st0{opacity:0.5;fill:url(#SVGID_1_);enable-background:new    ;}
	.st1{fill:url(#SVGID_00000118379148734298295510000007858829736535669132_);}
	.st2{opacity:0.4;fill:url(#SVGID_00000181085123862799408300000007288883668077783714_);enable-background:new    ;}
	.st3{opacity:0.3;fill:url(#SVGID_00000032632560790083512050000011814359306391971262_);enable-background:new    ;}
	.st4{opacity:0.5;fill:url(#SVGID_00000026882093989842573440000015559253303850375560_);enable-background:new    ;}
	.st5{opacity:0.4;fill:#D1D1D1;enable-background:new    ;}
</style>
<g>
	
		<radialGradient id="SVGID_1_" cx="389.65" cy="390.3" r="389.975" gradientTransform="matrix(1 0 0 -1 0 780)" gradientUnits="userSpaceOnUse">
		<stop  offset="0.5851" style="stop-color:#2C80A0"/>
		<stop  offset="0.5861" style="stop-color:#2C7F9F;stop-opacity:0.75"/>
		<stop  offset="0.6586" style="stop-color:#1F596F;stop-opacity:0.35"/>
		<stop  offset="0.7307" style="stop-color:#143947;stop-opacity:0.25"/>
		<stop  offset="0.8012" style="stop-color:#0B2028;stop-opacity:0.1"/>
		<stop  offset="0.8695" style="stop-color:#050E12;stop-opacity:8.000000e-02"/>
		<stop  offset="0.9348" style="stop-color:#010405;stop-opacity:5.000000e-02"/>
		<stop  offset="0.9936" style="stop-color:#000000;stop-opacity:2.000000e-02"/>
	</radialGradient>
	<path class="st0" d="M779.6,389.7c0,215.4-174.6,390-389.9,390c-215.4,0-390-174.6-390-390s174.6-390,390-390
		C605-0.3,779.6,174.3,779.6,389.7z"/>
	<g>
		
			<radialGradient id="SVGID_00000015345780198250029470000013320378062414347946_" cx="367.6987" cy="429.6445" r="279.3415" fx="319.6558" fy="423.3763" gradientTransform="matrix(1 0 0 -1 0 780)" gradientUnits="userSpaceOnUse">
			<stop  offset="0" style="stop-color:#FFFFFF"/>
			<stop  offset="0.6344" style="stop-color:#EDEDED"/>
			<stop  offset="1" style="stop-color:#E0E0E0"/>
		</radialGradient>
		<path style="fill:url(#SVGID_00000015345780198250029470000013320378062414347946_);" d="M606.3,499.5
			C543.2,618,396,662.8,277.5,599.7c-118.4-63.1-163.3-210.3-100.2-328.8c63.1-118.4,210.3-163.3,328.8-100.2
			C624.6,233.9,669.4,381.1,606.3,499.5z"/>
		
			<radialGradient id="SVGID_00000172402662338425006620000016613285054901903500_" cx="391.85" cy="394.8219" r="243.0179" gradientTransform="matrix(1 0 0 -1 0 780)" gradientUnits="userSpaceOnUse">
			<stop  offset="0" style="stop-color:#FFFFFF"/>
			<stop  offset="0.6344" style="stop-color:#EDEDED"/>
			<stop  offset="1" style="stop-color:#E0E0E0"/>
		</radialGradient>
		<path style="opacity:0.4;fill:url(#SVGID_00000172402662338425006620000016613285054901903500_);enable-background:new    ;" d="
			M327.9,150.7c76.4-18.6,160.3,5.2,215.2,68.8c78.2,90.5,68.3,227.3-22.2,305.5s-227.3,68.3-305.5-22.2
			c-77.5-89.7-68.4-224.9,19.9-303.4c-0.8,0.7-1.6,1.3-2.4,2C131.4,289.1,120.2,442.6,208,544.1S449.2,656.8,550.8,569
			c101.5-87.8,112.7-241.2,24.9-342.8C512.5,153.2,415.3,126.9,327.9,150.7z"/>
		
			<radialGradient id="SVGID_00000127025937438213744860000010382097961294268816_" cx="347.1205" cy="429.9802" r="180.3438" gradientTransform="matrix(0.9968 7.980000e-02 7.980000e-02 -0.9968 -19.2067 729.5037)" gradientUnits="userSpaceOnUse">
			<stop  offset="0" style="stop-color:#FFFFFF"/>
			<stop  offset="0.6344" style="stop-color:#EDEDED"/>
			<stop  offset="1" style="stop-color:#E0E0E0"/>
		</radialGradient>
		<path style="opacity:0.3;fill:url(#SVGID_00000127025937438213744860000010382097961294268816_);enable-background:new    ;" d="
			M513.1,217.1c56.1,76.5,33.6,188.4-50.4,250c-83.9,61.6-197.5,49.5-253.6-27s-33.5-188.4,50.4-250
			C343.5,128.5,457,140.6,513.1,217.1z"/>
		
			<radialGradient id="SVGID_00000045607391971062885490000012969936087777185425_" cx="317.2222" cy="503.5161" r="115.2329" gradientTransform="matrix(1 0 0 -1 0 780)" gradientUnits="userSpaceOnUse">
			<stop  offset="0" style="stop-color:#FFFFFF"/>
			<stop  offset="0.6344" style="stop-color:#EDEDED"/>
			<stop  offset="1" style="stop-color:#E0E0E0"/>
		</radialGradient>
		<path style="opacity:0.5;fill:url(#SVGID_00000045607391971062885490000012969936087777185425_);enable-background:new    ;" d="
			M417.6,189.7C451.8,229.1,434.5,300,379,348c-55.5,47.9-128.1,54.8-162.2,15.3S199.9,252.9,255.4,205
			C310.8,157,383.5,150.2,417.6,189.7z"/>
	</g>
	<g>
		<path class="st5" d="M236.3,510.1c3.2-12,27.7-12.1,48.2,3s13.9,36.8,0,40.4C270.6,557.1,227.8,541.4,236.3,510.1z"/>
		<path class="st5" d="M462.4,559.7c-2-10.8,9.2-24.5,27.3-28.6c18.1-4,35,2,37.8,18.5c2.8,16.5-17,32.2-32.6,27.7
			C479.3,573,464.8,572.6,462.4,559.7z"/>
		<path class="st5" d="M284.3,578.1c2.5-9,22.5-2.8,22.7,9.5C307.2,599.9,281.5,588.2,284.3,578.1z"/>
		<path class="st5" d="M343.7,581.8c3.8,4.3,15.4,8.8,17.8-3.7C363.9,565.7,331.6,568.2,343.7,581.8z"/>
		<path class="st5" d="M429.8,598.3c8.6,1,20.7,1.5,22.5-10c1.8-11.6-24.1-10.9-29.7-4.9C417,589.4,422.2,597.4,429.8,598.3z"/>
		<path class="st5" d="M555.3,328.5c5.6,4.4,22.5,5.6,25.3-9.6c2.8-15.3-16.1-22.1-25.3-18.9C546,303.2,538,314.9,555.3,328.5z"/>
		<path class="st5" d="M527.8,251.3c6.2,5.5,29.6,8.4,35.2-1.6c5.5-10.1-9.1-24-28.2-25.3C515.7,223,505.5,231.6,527.8,251.3z"/>
		<path class="st5" d="M383.8,218.9c7.7,5.5,30.4,1.9,32.4-10.9c2-12.9-20.2-15.8-32.4-11.3C371.5,201.1,369.6,208.9,383.8,218.9z"
			/>
		<path class="st5" d="M329.7,187c8.5,3.9,21,2.8,21.6-3.2c0.5-6-7.5-9.6-16.3-8.8C326.1,175.8,319.3,182.2,329.7,187z"/>
		<path class="st5" d="M220,239.7c1.1-6.2,7.6-1.2,8,2S218.4,248.5,220,239.7z"/>
		<path class="st5" d="M235.2,320.9c-2-5.3,6.5-4,6.9,0C242.5,324.9,236.7,324.9,235.2,320.9z"/>
		<path class="st5" d="M213.1,447.1c2.8,4.8,11,2.4,10.3-4.4C222.8,435.9,210.3,442.3,213.1,447.1z"/>
		<path class="st5" d="M200.7,501.4c1.2,2,7.3,4.2,7.7-2.5C208.7,492.2,197.9,496.5,200.7,501.4z"/>
		<path class="st5" d="M400,615.6c4.3,2.2,8.4-1.8,6.9-6.6C405.4,604.1,391.2,611.1,400,615.6z"/>
		<path class="st5" d="M380.1,613.8c2.9-3.1-4.8-4.3-7.8-2C369.2,614.1,376.5,617.7,380.1,613.8z"/>
		<path class="st5" d="M357.2,603.2c3.4,2.2,6,0.9,6.3-2.1C363.8,598.1,351.1,599.3,357.2,603.2z"/>
		<path class="st5" d="M390,539.9c-0.8-2,7.9-3,7.1,0C396.4,542.9,391.5,543.5,390,539.9z"/>
		<path class="st5" d="M527.8,430.4c0-4.5,7.3-4.2,7.6,0C535.7,434.7,527.8,435,527.8,430.4z"/>
		<path class="st5" d="M566.7,358.4c-0.3-4.5,8.4-4.8,8.7,0C575.8,363.2,567,362.9,566.7,358.4z"/>
		<path class="st5" d="M502.5,200.1c-0.7-5.2,5.4-5.1,6.3,0C509.7,205.2,502.8,202.6,502.5,200.1z"/>
		<path class="st5" d="M460.3,198.3c-4.7-3.3,2.4-6.3,5.4-3.6C468.7,197.4,465.4,201.9,460.3,198.3z"/>
		<path class="st5" d="M420.2,179.3c-3-1.5,0.9-7.4,4.8-4.4C428.9,177.8,423.2,180.8,420.2,179.3z"/>
		<path class="st5" d="M398.5,162.4c-3.2-3.8,3.9-2.7,6.3-1.5C407.2,162.1,403.6,168.4,398.5,162.4z"/>
		<path class="st5" d="M451.2,174.1c-3-6.2,4.8-1.6,4.2,0C454.9,175.7,451.2,174.1,451.2,174.1z"/>
		<path class="st5" d="M399.1,174.8c-2.7-2.2,2.3-2.4,2.5-0.1C401.8,177.1,399.1,174.8,399.1,174.8z"/>
		<path class="st5" d="M352.8,177.3c-1.4-1,1.9-3.6,3.6-1.7C358.1,177.6,355.4,179.1,352.8,177.3z"/>
		<path class="st5" d="M297.2,214.2c-2.7-2.2,5.4-5,8.4-2S301.4,217.6,297.2,214.2z"/>
	</g>
</g>
</svg>
