<?xml version="1.0" encoding="utf-8"?>
<!-- Generator: Adobe Illustrator 26.3.1, SVG Export Plug-In . SVG Version: 6.00 Build 0)  -->
<svg version="1.1" id="Capa_1" xmlns="http://www.w3.org/2000/svg" xmlns:xlink="http://www.w3.org/1999/xlink" x="0px" y="0px"
	 viewBox="0 0 780 1500" style="enable-background:new 0 0 780 1500;" xml:space="preserve">
<style type="text/css">
	.st0{fill-rule:evenodd;clip-rule:evenodd;fill:#33FF99;}
	.st1{fill:#00603C;}
	.st2{fill-rule:evenodd;clip-rule:evenodd;fill:#3A434D;}
	.st3{fill:#33FF99;}
	.st4{fill-rule:evenodd;clip-rule:evenodd;fill:#6B747F;}
	.st5{fill-rule:evenodd;clip-rule:evenodd;fill:#4B535D;}
	.st6{fill-rule:evenodd;clip-rule:evenodd;fill:#007C57;}
	.st7{fill:#AFC480;}
	.st8{fill-rule:evenodd;clip-rule:evenodd;fill:#2A3138;}
	.st9{fill-rule:evenodd;clip-rule:evenodd;fill:#FFFFFF;}
</style>
<g>
	<g>
		<path class="st0" d="M174.8,849.4c44.3,88.3,66.4,132.5,66.4,132.5s-12.1,15.2-36.2,45.6c-3.7,4.9-4.8,8.6-3.1,15.2
			c12.3,46.3,21.6,78.8,36,122.4c34,98.8-108.6-94.7-152.2-179.1c-3.9-7.1-5.4-14.4-4.4-21.8C84.5,937.5,154.3,869.1,174.8,849.4z"
			/>
		<path class="st1" d="M174.8,849.3c0,0.4,67.3,132.4,66.7,132.8c-5,6.2-27.8,35.1-32.2,40.6c-7.1,8.8-9.7,11.6-6.2,23.1
			c10.9,41.8,22.8,83.4,36.6,124.3c1,3.3,2,6.6,2.7,10c0.6,3.4,1.4,7,0.3,10.4c-7.2,15.8-64.6-62.2-70.7-70.3
			c-30.7-41.8-60-84.8-84.8-130.3c-1.6-3.1-3.3-6.1-4.5-9.4c-2.4-6.6-3-13.9-0.9-20.7c2.2-6.7,5.8-12.7,9.6-18.4
			C115.1,907.4,145,878.2,174.8,849.3L174.8,849.3z M174.8,849.4c-29.3,29.1-59.3,58.4-82.8,92.5c-11.5,17.4-14.9,28.7-3.9,47.6
			c24.8,45.5,54.1,88.5,84.7,130.3c6.2,8.4,62.4,84.9,69.6,70.6c1.1-3.2,0.3-6.8-0.3-10.1c-0.7-3.4-1.6-6.7-2.7-10
			c-13.6-41-25.9-82.5-36.9-124.3c-2.4-7.8-2.5-13.2,3-19.7c6.7-8.5,28.3-35.8,35.4-44.7C241.3,983.6,174.8,849.1,174.8,849.4
			L174.8,849.4z"/>
	</g>
	<g>
		<path class="st0" d="M657.3,780c5,5.5,8,12.2,9,20.3c13.4,94.1,9.6,334.5-20,234.2c-13.6-43.8-24.9-75.7-41.7-120.6
			c-2.5-6.3-5.5-8.7-11.4-10.5c-37.3-10.8-55.9-16.2-55.9-16.2s-7.6-48.8-22.8-146.4C542.5,744.9,639,760.1,657.3,780z"/>
		<path class="st1" d="M657.3,779.9c8.1,8.6,9,18.7,10.3,29.8c4.9,42.6,6.3,85.5,6.5,128.4c0,9.1-0.5,141.1-19.3,117.7
			c-4.5-6.7-6.6-14.7-9-22.3c-10.3-33.3-21.7-66.2-33.9-98.8c0,0-5.6-15-5.6-15c-1.9-4.7-3.3-10.5-7.8-13.4
			c-2.2-1.5-4.7-2.2-7.3-2.9c0,0-7.7-2.2-7.7-2.2c-10.1-2.9-36.2-10.4-46.6-13.4c-0.2-0.3-11.4-73.2-11.5-73.5
			c-2.9-18.5-8.6-55.3-11.5-73.8C545.9,745.4,636.2,759,657.3,779.9L657.3,779.9z M657.2,780c-20.9-20.6-111-33.9-142.9-38.8
			c0,0,0.5-0.5,0.5-0.5c2.9,18.3,8.6,54.9,11.5,73.2c-0.3-0.1,12.2,74.8,11.1,72.8c10.4,3,36.3,10.5,46.3,13.4c0,0,7.7,2.2,7.7,2.2
			c2.6,0.7,5.2,1.5,7.5,3.1c4.7,3.1,6.2,8.9,8.1,13.8c0,0,5.6,15.1,5.6,15.1c12.1,32.7,23.3,65.7,33.6,98.9
			c2.4,7.6,4.5,15.5,9.1,22.2c17.8,22.5,18.3-109.1,18.1-117.4c0-42.8-1.1-85.7-5.8-128.3c-0.7-5.3-1.1-10.7-2.5-15.8
			C663.5,788.8,660.8,783.9,657.2,780L657.2,780z"/>
	</g>
	<g>
		<path class="st2" d="M288,327.2c156.6,152.6,241.8,384.9,252.2,535.2c0,0-52,18.6-155.9,55.7c0,0-0.2-0.5-0.6-1.5l0.5,1.5
			c-106.2,30.1-159.3,45.1-159.3,45.1C146.2,834.8,88,585.9,116.9,381.9C116.9,381.9,245.2,319.2,288,327.2z"/>
		<path class="st3" d="M288.1,327.1c107.7,105.9,181.9,243.1,224.5,387.3c14,48.3,24.2,97.9,27.9,148.1c-0.1,0.1-78,27.7-78.1,27.8
			c-0.2,0.1-77.9,27.9-78.1,28c0,0-0.1-0.2-0.1-0.2c0,0-0.6-1.5-0.6-1.5c0,0,0.4-0.1,0.4-0.1s0.5,1.5,0.5,1.5s0.1,0.2,0.1,0.2
			c-0.6,0.2-159.1,45.2-159.7,45.4c-19.6-32.2-35.4-66.5-48.9-101.7c-56-152-80.4-319.1-59.3-480.2
			C155.6,363.4,247.7,321.3,288.1,327.1L288.1,327.1z M288,327.2c-31.6-5-98.9,23.2-129.7,36.2c-13.6,5.6-28.6,13.1-41,18.5
			c-13.5,99.3-7.5,200.5,10,298.9c18,97.6,48.1,197.2,97.6,282c-0.1,0,160.1-45.5,159.2-44.7c0,0-0.5-1.5-0.5-1.5s0.4-0.1,0.4-0.1
			c0,0,0.6,1.5,0.6,1.5s-0.3-0.1-0.3-0.1s78-27.8,78-27.8c0,0,77.9-27.9,77.9-27.9c-4.1-48.8-14.1-99.7-28.2-147.5
			C469,570.6,395.2,433.5,288,327.2L288,327.2z"/>
	</g>
	<path class="st4" d="M123.4,375.3c21.4,188,64.4,376.3,180.9,565.5l-79.3,22.5C146.2,834.8,88,585.9,116.9,381.9
		C119.1,379.7,121.2,377.5,123.4,375.3z"/>
	<path class="st5" d="M263.3,335.1C419.8,487.7,505.1,720,515.4,870.3l-129.8,46.3C363.4,721.1,299.5,523.2,195.8,323
		C214.7,326.3,237.9,330.4,263.3,335.1z"/>
	<path class="st3" d="M431.7,1226.7c0,0-5.9-19.5,3.7-37.1c0,0-4.1,46.8,47.9,79.7c0,0-17.5-24.5,4.8-53.2c0,0,13.3-16.4,10.4-44.2
		c4.2,7.7,8.7,19.1,7.2,31.4c0,0,25.6-43.2-20.2-86.1c-1.4-1.2-2.9-2.2-4.3-3.2c17.9,0.9,30,5.7,30,5.7
		c55.2,26.1,91.3,89.2,52.5,192.1c0,0-0.3-35.9-30.1-60.6c0,0,36.8,76.8-45.8,159.7c0,0,19.6-50.6-42.1-87.3
		c0,0-36.3-20.7-47.7-69.1c-3.6,15.2-5.4,36.8,5,56.8c0,0-77.1-59.5-12.8-156c6.4-7.7,13-14,19.8-19.2
		C398.3,1159,403.2,1177.3,431.7,1226.7z"/>
	<g>
		<path class="st6" d="M390.6,1067.1l29.3-11.1l-0.2-0.6l6.1-1.6l5.9-2.2l0.2,0.6l30.3-8c23.8,24.4,38.6,44.9,46.1,60.6
			c17.3,36.3-113.9,77.9-119.9,38.3C385.6,1126,385.4,1100.8,390.6,1067.1z"/>
		<path class="st3" d="M390.5,1067.1c8.7-3.3,20.7-8.1,29.2-11.3c0,0-0.2,0.4-0.2,0.4s-0.2-0.6-0.2-0.6l-0.1-0.3
			c0,0,0.3-0.1,0.3-0.1s6-1.6,6-1.6c-0.1,0,5.9-2.2,5.8-2.2c0,0,0.3-0.1,0.3-0.1s0.1,0.4,0.1,0.4s0.2,0.6,0.2,0.6l-0.4-0.2l30.3-8.1
			c0,0,0.3-0.1,0.3-0.1c8.9,9.3,17.6,18.8,25.5,29c7.8,10.1,15.2,20.7,20.7,32.2c1.3,2.9,1.9,6.3,1.3,9.4
			c-3,14.8-21.8,25.3-34.4,31.4c-20.3,9.4-52.9,18.6-74.6,11.4c-6.3-2.1-11.8-6.9-12.7-13.7C384.2,1118,386.5,1092.3,390.5,1067.1
			L390.5,1067.1z M390.6,1067.1c-1.8,12.6-3.1,25.3-3.6,38.1c-0.5,12.7-0.2,25.6,1.8,38.1c0.3,1.5,0.7,3,1.4,4.4
			c3.7,7.2,12.4,9.6,19.9,10.5c21.7,2,45-4.4,64.8-13.1c12.6-5.9,31.2-16.2,34.4-30.8c0.6-3.1,0.1-6.4-1.2-9.2
			c-5.6-11.5-13-22-20.9-32c-7.9-10-16.5-19.4-25.5-28.6c0,0,0.4,0.1,0.4,0.1l-30.3,7.9l-0.3,0.1l-0.1-0.3l-0.2-0.6
			c0,0,0.4,0.2,0.4,0.2c0,0-5.9,2.2-5.9,2.2c0,0-6.1,1.6-6.1,1.6c0,0,0.2-0.4,0.2-0.4s0.2,0.6,0.2,0.6s0.1,0.3,0.1,0.3l-0.3,0.1
			C411.5,1059.4,399.2,1064,390.6,1067.1L390.6,1067.1z"/>
	</g>
	<g>
		<path class="st0" d="M521,957.3c1.2,9.5,1.2,25.6,1,41.5c-0.3,25-2.7,34.9-14.1,42.8c-22.4,15.4-127.3,48.3-152.5,48.8
			c-13.9,0.2-21.6-6.5-36.4-26.7c-9.4-12.8-18.8-25.9-23.3-34.3C356.5,975.2,440,948.5,521,957.3z"/>
		<path class="st7" d="M521.1,957.3c1.6,14.1,1.2,28.2,1.2,42.3c-0.3,10.5-0.1,21.5-4.4,31.3c-4.6,10-15.4,14.6-24.8,19
			c-6.4,2.9-13,5.6-19.6,8c-33,12.2-66.8,22.9-101.2,30.2c-15.5,3.1-27.4,5.1-39.5-7.4c-5-5-9.3-10.7-13.5-16.3
			c-8.3-11.4-16.9-22.6-23.9-34.9c0,0-0.2-0.3-0.2-0.3c0,0,0.2-0.2,0.2-0.2C356,974.7,440.2,948,521.1,957.3L521.1,957.3z
			 M521,957.4c-60.4-6.1-122.8,7.1-175.6,37.1c-17.6,10-34.2,21.8-49.4,35.2c0,0,0.1-0.5,0.1-0.5c6.9,12.3,15.4,23.6,23.6,35
			c4.2,5.7,8.4,11.3,13.4,16.3c11.9,12.4,23.7,10.5,39.1,7.4c34.4-7.5,68-18.4,101-30.7c6.6-2.5,13.1-5.2,19.5-8
			c9.3-4.3,19.9-8.7,24.5-18.6c4.3-9.7,4.2-20.6,4.5-31C521.8,985.5,522.3,971.3,521,957.4L521,957.4z"/>
	</g>
	<g>
		<path class="st5" d="M154.3,223.6c2.1-0.7,4.2-1.4,6.4-2c2.1-0.7,4.2-1.4,6.3-2c3.2,8.5,6.4,17.1,9.6,25.6
			c3.2,8.5,6.4,17.1,9.6,25.6c-3,0.9-5.9,1.9-8.9,2.9c-3,1-5.9,1.9-8.9,2.9c-2.3-8.8-4.7-17.6-7-26.4
			C159,241.3,156.7,232.5,154.3,223.6z"/>
		<path class="st3" d="M154.3,223.6c3.3-1.2,9.6-3.4,12.9-4.5c1.7,4.3,3.3,8.7,5,13.1c4.8,12.8,9.2,25.8,14.2,38.5
			c0,0,0.1,0.2,0.1,0.2s-0.2,0.1-0.2,0.1c-6.1,2-12.1,4.1-18.2,6.1c0,0-0.1-0.5-0.1-0.5l-3.6-13.2
			C161.2,251.7,157.1,235.5,154.3,223.6L154.3,223.6z M154.4,223.7c3.4,11.7,7.9,27.7,11,39.5c0,0,3.5,13.2,3.5,13.2
			c0,0-0.6-0.3-0.6-0.3c6-1.9,11.9-3.7,17.9-5.5c0,0-0.2,0.3-0.2,0.3c-1.5-4.3-3.1-8.6-4.7-12.8c-3.2-8.5-6.7-17-9.9-25.5
			c-1.6-4.3-3.2-8.5-4.7-12.8l0.4,0.2C163.9,220.9,157.5,222.8,154.4,223.7L154.4,223.7z"/>
	</g>
	<path class="st0" d="M288,327.2c-60.9,2.8-119.9,21.7-171.1,54.7C132,241.9,189,223.6,288,327.2z"/>
	<g>
		<path class="st6" d="M540.2,862.4c1.7,13.2,1.6,35.8,1.3,58c-0.5,35-3.7,48.9-19.8,59.9c-31.4,21.6-178.1,67.6-213.3,68.2
			c-19.5,0.3-30.2-9.1-50.9-37.3c-13.1-17.9-26.3-36.3-32.6-48C310.1,887.3,426.9,850,540.2,862.4z"/>
		<path class="st3" d="M540.2,862.3c2.4,22.1,1.7,44.3,1.4,66.5c-0.3,7.4-0.6,14.9-1.9,22.1c-1.2,7.3-3.5,14.6-8.1,20.6
			c-7.8,9.9-19.7,14.9-30.8,20.2c-9,4.1-18.2,7.8-27.4,11.2c-36.9,13.8-74.6,25.7-112.8,35.7c-14.3,3.6-28.7,7.1-43.4,9.2
			c-16.7,2.5-28.5-0.7-40.6-12.9c-5.2-5.2-9.9-11.1-14.4-16.9c-13.2-17.8-26.7-35.5-37.8-54.8c0,0-0.2-0.3-0.2-0.3
			c0,0,0.2-0.2,0.2-0.2C309.5,887,427.1,849.3,540.2,862.3L540.2,862.3z M540.2,862.4c-112.9-11.9-230.2,25.5-315,101.1
			c0,0,0.1-0.5,0.1-0.5c9.6,17.2,21.6,33,33.1,48.9c5.9,7.9,11.8,15.8,18.7,22.8c11.9,12.1,23.5,15.3,40.2,12.9
			c14.6-2,29-5.6,43.3-9.3c38.1-10.1,75.7-22.1,112.6-36.1c13.8-5.4,27.5-10.8,40.6-17.7c6.5-3.5,12.7-7.5,17.3-13.4
			c4.5-5.9,6.8-13,8-20.3c1.3-7.2,1.7-14.7,1.9-22C541.4,906.7,542.3,884.4,540.2,862.4L540.2,862.4z"/>
	</g>
	<path d="M219.9,957.5c44-38.9,95.1-67.7,149.8-85.1c54.7-17.5,113-23.7,171.4-17.6c4.2,0.4,7.2,4.2,6.8,8.4
		c-0.4,4.2-4.2,7.2-8.4,6.8C483.2,864,427,870,374.3,886.9c-52.7,16.9-102,44.6-144.3,82c-3.2,2.8-8,2.5-10.8-0.7
		C216.4,965.1,216.7,960.3,219.9,957.5z"/>
	<path d="M112.8,375.5c26.2-16.9,54.3-30.2,83.7-39.6c29.4-9.4,60-14.9,91.1-16.4c4.2-0.2,7.8,3,8,7.2c0.2,4.2-3,7.8-7.2,8
		c-29.7,1.4-59.1,6.7-87.2,15.7c-28.2,9-55.1,21.7-80.1,37.8c-3.5,2.3-8.3,1.2-10.5-2.3C108.2,382.5,109.3,377.8,112.8,375.5z"/>
	<g>
		<path class="st4" d="M143.2,168.6c16.2-5.2,33.5,3.8,38.7,20c5.2,16.2-3.8,33.5-20,38.7c-16.2,5.2-33.5-3.8-38.7-20
			C118,191.1,127,173.8,143.2,168.6z"/>
		<path class="st3" d="M143.2,168.5c21-6.9,42.6,9.8,40.4,32c-2.7,27.4-36.7,38.7-54.9,17.7C114.2,201.2,122,175.1,143.2,168.5
			L143.2,168.5z M143.2,168.6c-15.8,4.9-24.7,23-19.5,38.5c8.3,25.6,43.6,28.9,56.1,4.8C191.9,188,168.8,160.6,143.2,168.6
			L143.2,168.6z"/>
	</g>
	<path class="st0" d="M148,183.7c7.9-2.5,16.3,1.8,18.8,9.7c2.5,7.9-1.8,16.3-9.7,18.8c-7.9,2.5-16.3-1.8-18.8-9.7
		C135.8,194.6,140.1,186.2,148,183.7z"/>
	<g>
		<path class="st0" d="M400.7,810.3c89.2,377.2,61.3,386.2-83.9,26.8C338.9,815.2,370.1,805.2,400.7,810.3z"/>
		<path class="st1" d="M400.7,810.2c17.2,71.7,34.2,144.5,45.7,217.4c1.1,9.3,12.8,76.2-2.1,72.5c-8.1-2.8-17.3-19.2-21.8-26.5
			c-30.5-53.7-53.9-111.1-78.1-167.8c-9.3-22.9-19.5-46.1-27.9-69C338.3,815.1,370.5,804.9,400.7,810.2L400.7,810.2z M400.7,810.3
			c-31.4-5.1-61.7,6-83.5,26.6c23.4,57.1,46.8,114.2,72.6,170.2c6.8,14.1,42.9,95.8,56.9,92.5c10.6-4.7,0.8-60.5-0.7-72
			C434.1,955.3,416.9,881.9,400.7,810.3L400.7,810.3z"/>
	</g>
	<circle class="st8" cx="271.3" cy="549.2" r="101"/>
	
		<ellipse transform="matrix(0.997 -7.766677e-02 7.766677e-02 0.997 -41.3492 22.0506)" class="st6" cx="262.8" cy="542.6" rx="101" ry="101"/>
	
		<ellipse transform="matrix(0.984 -0.1783 0.1783 0.984 -92.5408 55.5567)" class="st9" cx="262.8" cy="542.6" rx="68.5" ry="68.5"/>
</g>
</svg>
